<?xml version="1.0" encoding="utf-8"?>
<!-- Generator: Adobe Illustrator 22.0.1, SVG Export Plug-In . SVG Version: 6.00 Build 0)  -->
<svg version="1.1" id="Capa_1" xmlns="http://www.w3.org/2000/svg" xmlns:xlink="http://www.w3.org/1999/xlink" x="0px" y="0px"
	 viewBox="0 0 255 255" style="enable-background:new 0 0 255 255;" xml:space="preserve">
<style type="text/css">
	.st0{fill:#2C2C2D;}
	.st1{fill:#FFFFFF;}
</style>
<rect x="0" class="st0" width="255" height="255"/>
<g>
	<path class="st1" d="M49,32.7v-0.3h12v0.3l-3.3,3v10h12.8v-10l-3.3-3v-0.3h12v0.3l-3.3,3v22.5l3.3,3v0.3h-12v-0.3l3.3-3V47.4H57.7
		v10.8l3.3,3v0.3H49v-0.3l3.3-3V35.7L49,32.7z"/>
	<path class="st1" d="M115.4,61.1l3.3-3V35.7l-3.3-3v-0.3h21.3v8.7h-0.4l-5-7h-7.2v11.6h10.6v1.7h-10.6v12.5h7.9l5.5-7.3h0.4
		l-0.9,8.9h-21.6V61.1z"/>
	<path class="st1" d="M184.8,59.8h7.8l5.5-7.3h0.4l-0.9,8.9h-21.5v-0.3l3.3-3V35.7l-3.3-3v-0.3h12v0.3l-3.3,3V59.8z"/>
	<path class="st1" d="M48.8,142.8l3.3-3v-22.5l-3.3-3V114h21.3v8.7h-0.4l-5-7h-7.2v11.6h10.6v1.7H57.5v12.5h7.9l5.5-7.3h0.4
		l-0.9,8.9H48.8V142.8z"/>
	<path class="st1" d="M120.5,142.8v0.3h-8.6v-0.3l3.4-3v-20.9l-3.1-4.4V114h6.2l15.8,22.8v-19.5l-3.4-3V114h8.6v0.3l-3.4,3v22.1
		l2.3,3.3v0.3h-6.2l-15-21.7v18.4L120.5,142.8z"/>
	<path class="st1" d="M180.3,114.4V114h12v0.3l-3.3,3v22.5l3.3,3v0.3h-12v-0.3l3.3-3v-22.5L180.3,114.4z"/>
	<path class="st1" d="M132.6,195.5v9.4h-0.5c-1.1-2.5-2.4-4.4-3.9-5.6c-1.6-1.2-3.2-1.8-4.9-1.8c-2.2,0-4,0.9-5.3,2.7
		c-1.3,1.8-1.9,4.3-1.9,7.6c0,2,0.2,3.8,0.7,5.4c0.5,1.6,1.2,3,2,4.2c0.8,1.1,1.8,2,3,2.6c1.2,0.6,2.4,0.9,3.7,0.9
		c1.8,0,3.3-0.5,4.7-1.6c1.3-1.1,2.5-2.4,3.5-4.1l0.6,0.3c-1,3-2.5,5.3-4.6,6.9c-2,1.6-4.4,2.4-7,2.4c-1.8,0-3.3-0.4-4.8-1.1
		c-1.4-0.7-2.7-1.7-3.7-3s-1.8-2.8-2.4-4.5c-0.6-1.7-0.8-3.6-0.8-5.6c0-2.2,0.3-4.2,1-6.1c0.7-1.9,1.7-3.5,2.9-4.8
		c1.3-1.4,2.8-2.4,4.5-3.2c1.7-0.7,3.7-1.1,5.8-1.1H132.6z"/>
	<path class="st1" d="M178,224.9h-8.2v-0.3l3.1-2.9l10.6-26.2h1.4l10.9,26.2l3.1,2.9v0.3h-12.2v-0.3l3.2-2.8l-2.2-5.6H177l-2.1,5.5
		l3.2,2.9V224.9z M187,214.6l-4.7-11.8l-4.6,11.8H187z"/>
	<g>
		<path class="st1" d="M204.4,222.9c0,0.3,0,0.5-0.1,0.8c-0.1,0.2-0.2,0.4-0.4,0.6c-0.2,0.2-0.4,0.3-0.6,0.4
			c-0.2,0.1-0.5,0.1-0.8,0.1c-0.3,0-0.5,0-0.8-0.1c-0.2-0.1-0.4-0.2-0.6-0.4c-0.2-0.2-0.3-0.4-0.4-0.6c-0.1-0.2-0.1-0.5-0.1-0.8
			c0-0.3,0-0.5,0.1-0.8c0.1-0.2,0.2-0.4,0.4-0.6c0.2-0.2,0.4-0.3,0.6-0.4c0.2-0.1,0.5-0.1,0.8-0.1c0.3,0,0.5,0,0.8,0.1
			c0.2,0.1,0.4,0.2,0.6,0.4c0.2,0.2,0.3,0.4,0.4,0.6C204.4,222.4,204.4,222.6,204.4,222.9z M204.2,222.9c0-0.2,0-0.5-0.1-0.7
			c-0.1-0.2-0.2-0.4-0.4-0.5c-0.2-0.2-0.3-0.3-0.5-0.4c-0.2-0.1-0.4-0.1-0.7-0.1c-0.2,0-0.5,0-0.7,0.1c-0.2,0.1-0.4,0.2-0.5,0.4
			c-0.2,0.2-0.3,0.3-0.4,0.5c-0.1,0.2-0.1,0.4-0.1,0.7c0,0.2,0,0.5,0.1,0.7c0.1,0.2,0.2,0.4,0.4,0.5c0.2,0.2,0.3,0.3,0.5,0.4
			c0.2,0.1,0.4,0.1,0.7,0.1c0.2,0,0.5,0,0.7-0.1c0.2-0.1,0.4-0.2,0.5-0.4c0.2-0.2,0.3-0.3,0.4-0.5
			C204.2,223.4,204.2,223.1,204.2,222.9z M203.4,223.2c-0.1,0.3-0.2,0.5-0.4,0.6c-0.2,0.1-0.4,0.2-0.6,0.2c-0.1,0-0.3,0-0.4-0.1
			c-0.1-0.1-0.2-0.1-0.3-0.2c-0.1-0.1-0.1-0.2-0.2-0.4c0-0.1-0.1-0.3-0.1-0.4c0-0.2,0-0.3,0.1-0.5c0.1-0.1,0.1-0.3,0.2-0.4
			c0.1-0.1,0.2-0.2,0.4-0.2c0.1-0.1,0.3-0.1,0.5-0.1h0.6v0.8h0c-0.1-0.2-0.2-0.4-0.3-0.5c-0.1-0.1-0.2-0.1-0.4-0.1
			c-0.2,0-0.3,0.1-0.4,0.2c-0.1,0.1-0.1,0.3-0.1,0.6c0,0.2,0,0.3,0.1,0.4c0,0.1,0.1,0.2,0.2,0.3c0.1,0.1,0.1,0.1,0.2,0.2
			c0.1,0,0.2,0.1,0.3,0.1C203,223.6,203.2,223.5,203.4,223.2L203.4,223.2z"/>
	</g>
</g>
</svg>
